sfk_cyclingleg_x_-0.1_y_-0.06_states
version=1
nRows=9
nColumns=53
inDegrees=yes

# SIMM Motion File Header:
name sfk_cyclingleg_x_-0.1_y_-0.06_states
datacolumns 53
datarows 9
otherdata 1
range 0.42567702 0.42730228
endheader
time	/jointset/bb/crank_angle/value	/jointset/bb/crank_angle/speed	/jointset/spindle/pedal_angle_r/value	/jointset/spindle/pedal_angle_r/speed	/jointset/ground_pelvis/pelvis_tilt/value	/jointset/ground_pelvis/pelvis_tilt/speed	/jointset/ground_pelvis/pelvis_list/value	/jointset/ground_pelvis/pelvis_list/speed	/jointset/ground_pelvis/pelvis_rotation/value	/jointset/ground_pelvis/pelvis_rotation/speed	/jointset/ground_pelvis/pelvis_tx/value	/jointset/ground_pelvis/pelvis_tx/speed	/jointset/ground_pelvis/pelvis_ty/value	/jointset/ground_pelvis/pelvis_ty/speed	/jointset/ground_pelvis/pelvis_tz/value	/jointset/ground_pelvis/pelvis_tz/speed	/jointset/hip_r/hip_angle_r/value	/jointset/hip_r/hip_angle_r/speed	/jointset/hip_r/hip_adduction_r/value	/jointset/hip_r/hip_adduction_r/speed	/jointset/hip_r/hip_rotation_r/value	/jointset/hip_r/hip_rotation_r/speed	/jointset/knee_r/knee_angle_r/value	/jointset/knee_r/knee_angle_r/speed	/jointset/knee_r/tib_tx_r/value	/jointset/knee_r/tib_tx_r/speed	/jointset/knee_r/tib_ty_r/value	/jointset/knee_r/tib_ty_r/speed	/jointset/tib_pat_r/pat_angle_r/value	/jointset/tib_pat_r/pat_angle_r/speed	/jointset/tib_pat_r/pat_tx_r/value	/jointset/tib_pat_r/pat_tx_r/speed	/jointset/tib_pat_r/pat_ty_r/value	/jointset/tib_pat_r/pat_ty_r/speed	/jointset/ankle_r/ankle_angle_r/value	/jointset/ankle_r/ankle_angle_r/speed	/jointset/subtalar_r/subtalar_angle_r/value	/jointset/subtalar_r/subtalar_angle_r/speed	/jointset/mtp_r/mtp_angle_r/value	/jointset/mtp_r/mtp_angle_r/speed	/forceset/bifemlh_r/activation	/forceset/bifemlh_r/fiber_length	/forceset/bifemsh_r/activation	/forceset/bifemsh_r/fiber_length	/forceset/glut_max2_r/activation	/forceset/glut_max2_r/fiber_length	/forceset/vas_int_r/activation	/forceset/vas_int_r/fiber_length	/forceset/med_gas_r/activation	/forceset/med_gas_r/fiber_length	/forceset/tib_ant_r/activation	/forceset/tib_ant_r/fiber_length
      0.42567702	   -214.51886139	   -480.13863232	    207.79511726	    286.03636877	      0.00000000	      0.00000000	      0.00000000	      0.00000000	     -0.00000000	     -0.00000000	     -0.10000000	      0.00000000	     -0.06000000	     -0.00000000	      0.00000000	      0.00000000	     42.97661955	     80.46298831	      4.37427516	     -0.58604346	     -0.10787010	    -20.92643403	    -70.90591469	   -273.41823446	      0.00514841	     -0.00149802	     -0.47943456	     -0.09001718	     17.52498252	      1.35694334	      0.03945061	     -0.08794024	     -0.02257246	      0.00651766	     21.65125567	     -0.35526946	      0.00000000	      0.00000000	      0.00000000	      0.00000000	     -0.02936380	      0.11455405	     -0.02936380	      0.16048461	     -0.02936380	      0.13246101	     -0.02936380	      0.13669474	     -0.02936380	      0.14198219	     -0.02936380	      0.11689193
      0.42571736	   -214.53823278	   -480.13863232	    207.80665800	    286.06048390	      0.00000000	      0.00000000	      0.00000000	      0.00000000	     -0.00000000	     -0.00000000	     -0.10000000	      0.00000000	     -0.06000000	     -0.00000000	      0.00000000	      0.00000000	     42.97986637	     80.48821122	      4.37425151	     -0.58672844	     -0.10871439	    -20.92710518	    -70.91694621	   -273.43584208	      0.00514835	     -0.00151816	     -0.47943819	     -0.09002810	     17.52503721	      1.35436149	      0.03944706	     -0.08795388	     -0.02257220	      0.00651123	     21.65124168	     -0.33842576	      0.00000000	      0.00000000	      0.00000000	      0.00000000	     -0.02936899	      0.11455191	     -0.02936899	      0.16047893	     -0.02936899	      0.13246336	     -0.02936899	      0.13670191	     -0.02936899	      0.14201713	     -0.02936899	      0.11689201
      0.42577254	   -214.56472473	   -480.13863232	    207.82244247	    286.09349623	      0.00000000	      0.00000000	      0.00000000	      0.00000000	     -0.00000000	     -0.00000000	     -0.10000000	      0.00000000	     -0.06000000	     -0.00000000	      0.00000000	      0.00000000	     42.98430831	     80.52269420	      4.37421911	     -0.58766532	     -0.10986909	    -20.92802163	    -70.93203387	   -273.45988022	      0.00514826	     -0.00154570	     -0.47944315	     -0.09004302	     17.52511184	      1.35083485	      0.03944221	     -0.08797253	     -0.02257184	      0.00650242	     21.65122364	     -0.31538804	      0.00000000	      0.00000000	      0.00000000	      0.00000000	     -0.02937610	      0.11454900	     -0.02937610	      0.16047116	     -0.02937610	      0.13246658	     -0.02937610	      0.13671175	     -0.02937610	      0.14201746	     -0.02937610	      0.11689211
      0.42604841	   -214.69718449	   -480.13863232	    207.90139225	    286.25912755	      0.00000000	      0.00000000	      0.00000000	      0.00000000	     -0.00000000	     -0.00000000	     -0.10000000	      0.00000000	     -0.06000000	     -0.00000000	      0.00000000	      0.00000000	     43.00654652	     80.69491199	      4.37405634	     -0.59235150	     -0.11564330	    -20.93257975	    -71.00749199	   -273.57934910	      0.00514782	     -0.00168351	     -0.47946801	     -0.09011732	     17.52548208	      1.33327557	      0.03941792	     -0.08806565	     -0.02257005	      0.00645816	     21.65115253	     -0.20015497	      0.00000000	      0.00000000	      0.00000000	      0.00000000	     -0.02941162	      0.11453447	     -0.02941162	      0.16043232	     -0.02941162	      0.13248272	     -0.02941162	      0.13676112	     -0.02941162	      0.14200846	     -0.02941162	      0.11689261
      0.42629492	   -214.81553961	   -480.13863232	    207.97197401	    286.40792363	      0.00000000	      0.00000000	      0.00000000	      0.00000000	     -0.00000000	     -0.00000000	     -0.10000000	      0.00000000	     -0.06000000	     -0.00000000	      0.00000000	      0.00000000	     43.02645692	     80.84851523	      4.37390980	     -0.59654117	     -0.12080372	    -20.93661873	    -71.07494289	   -273.68508142	      0.00514739	     -0.00180680	     -0.47949023	     -0.09018330	     17.52580882	      1.31769066	      0.03939621	     -0.08814866	     -0.02256847	      0.00641827	     21.65111589	     -0.09713015	      0.00000000	      0.00000000	      0.00000000	      0.00000000	     -0.02944335	      0.11452155	     -0.02944335	      0.16039763	     -0.02944335	      0.13249716	     -0.02944335	      0.13680531	     -0.02944335	      0.14198684	     -0.02944335	      0.11689304
      0.42686186	   -215.08774967	   -480.13863232	    208.13444791	    286.75300648	      0.00000000	      0.00000000	      0.00000000	      0.00000000	     -0.00000000	     -0.00000000	     -0.10000000	      0.00000000	     -0.06000000	     -0.00000000	      0.00000000	      0.00000000	     43.07239315	     81.20081475	      4.37356887	     -0.60618583	     -0.13267615	    -20.94578891	    -71.23017420	   -273.92464070	      0.00514628	     -0.00209083	     -0.47954140	     -0.09033362	     17.52654579	      1.28222385	      0.03934618	     -0.08833891	     -0.02256486	      0.00632530	     21.65112804	      0.14003902	      0.00000000	      0.00000000	      0.00000000	      0.00000000	     -0.02951635	      0.11449206	     -0.02951635	      0.16031789	     -0.02951635	      0.13253048	     -0.02951635	      0.13690708	     -0.02951635	      0.14185788	     -0.02951635	      0.11689394
      0.42691855	   -215.11497068	   -480.13863232	    208.15070608	    286.78773341	      0.00000000	      0.00000000	      0.00000000	      0.00000000	     -0.00000000	     -0.00000000	     -0.10000000	      0.00000000	     -0.06000000	     -0.00000000	      0.00000000	      0.00000000	     43.07699775	     81.23597026	      4.37353447	     -0.60715094	     -0.13386367	    -20.94669689	    -71.24570477	   -273.94832019	      0.00514616	     -0.00211927	     -0.47954652	     -0.09034854	     17.52661838	      1.27870629	      0.03934117	     -0.08835789	     -0.02256450	      0.00631591	     21.65113665	      0.16377239	      0.00000000	      0.00000000	      0.00000000	      0.00000000	     -0.02952365	      0.11448913	     -0.02952365	      0.16030992	     -0.02952365	      0.13253382	     -0.02952365	      0.13691713	     -0.02952365	      0.14189425	     -0.02952365	      0.11689402
      0.42699042	   -215.14947865	   -480.13863232	    208.17131934	    286.83181361	      0.00000000	      0.00000000	      0.00000000	      0.00000000	     -0.00000000	     -0.00000000	     -0.10000000	      0.00000000	     -0.06000000	     -0.00000000	      0.00000000	      0.00000000	     43.08283785	     81.28051746	      4.37349079	     -0.60837457	     -0.13536917	    -20.94784560	    -71.26539475	   -273.97826656	      0.00514601	     -0.00215533	     -0.47955302	     -0.09036743	     17.52671013	      1.27425475	      0.03933482	     -0.08838193	     -0.02256404	      0.00630399	     21.65114950	      0.19386333	      0.00000000	      0.00000000	      0.00000000	      0.00000000	     -0.02953290	      0.11448542	     -0.02953290	      0.16029981	     -0.02953290	      0.13253806	     -0.02953290	      0.13692993	     -0.02953290	      0.14189603	     -0.02953290	      0.11689413
      0.42730228	   -215.29921134	   -480.13863232	    208.26079863	    287.02381813	      0.00000000	      0.00000000	      0.00000000	      0.00000000	     -0.00000000	     -0.00000000	     -0.10000000	      0.00000000	     -0.06000000	     -0.00000000	      0.00000000	      0.00000000	     43.10821554	     81.47356199	      4.37330024	     -0.61368613	     -0.14190260	    -20.95279979	    -71.35085586	   -274.10727500	      0.00514531	     -0.00231194	     -0.47958121	     -0.09044901	     17.52710451	      1.25503846	      0.03930724	     -0.08848607	     -0.02256209	      0.00625191	     21.65123032	      0.32448472	      0.00000000	      0.00000000	      0.00000000	      0.00000000	     -0.02957305	      0.11446937	     -0.02957305	      0.16025598	     -0.02957305	      0.13255647	     -0.02957305	      0.13698566	     -0.02957305	      0.14188782	     -0.02957305	      0.11689457
